# xmcd CD database file
#
# Track frame offsets:
#	150
#	34900
#	120577
#	135467
#	141967
#	274470
#
# Disc length: 4114 seconds
#
# Revision: 0
# Processed by: cddbd v1.4PL0 Copyright (c) Steve Scherf et al.
# Submitted via: CDex 1.50
#
DISCID=59101006
DTITLE=Borah Bergman, Thomas Borgmann, Peter Brötzmann - Ride into the Blue
DYEAR=1995
DGENRE=Jazz
TTITLE0=Tomorrow Is No Question
TTITLE1=Surfing the Blues
TTITLE2=Locus Solus
TTITLE3=The Stonehouse
TTITLE4=Stranger in the City
TTITLE5=Two Lines for Nik
EXTD=YEAR: 1995
EXTT0=
EXTT1=
EXTT2=
EXTT3=
EXTT4=
EXTT5=
PLAYORDER=
